<?xml version="1.0" encoding="utf-8"?>
<!-- Generator: Adobe Illustrator 23.1.1, SVG Export Plug-In . SVG Version: 6.00 Build 0)  -->
<svg version="1.1" id="레이어_1" xmlns="http://www.w3.org/2000/svg" xmlns:xlink="http://www.w3.org/1999/xlink" x="0px"
	 y="0px" viewBox="0 0 1200 1200" style="enable-background:new 0 0 1200 1200;" xml:space="preserve">
<style type="text/css">
	.st0{fill:#FFFFFF;}
</style>
<path class="st0" d="M1175,500h-175v65.6L200,362.5v-31.2l450-175V200h200V0H650v103.1L200,279.7V250H0v200h200v-35.9l800,203.1
	v37.5L507.8,1000H350v200h200v-167.2L1021.9,700H1200V500L1175,500z M700,50h100v100H700V50z M150,400H50V300h100V400z M500,1150
	H400v-100h100V1150z M1150,650h-100V550h100V650z"/>
</svg>
